# xmcd
#
# Track frame offsets: 
#        150
#        15827
#        36979
#        61250
#        82168
#        101985
#        125687
#
# Disc length: 1945 seconds
#
# Revision: 1
# Processed by: cddbd v1.5.2PL0 Copyright (c) Steve Scherf et al.
# Submitted via: ExactAudioCopyFreeDBPlugin 1.0
#
DISCID=59079707
DTITLE=Camino - Arise
DYEAR=2003
DGENRE=Rock
TTITLE0=Go Mad Emotion
TTITLE1=Breaking Dawn
TTITLE2=Seperate Time
TTITLE3=Myself
TTITLE4=Truth or Lie
TTITLE5=I Wish...
TTITLE6=Far Away
EXTD=
EXTT0=
EXTT1=
EXTT2=
EXTT3=
EXTT4=
EXTT5=
EXTT6=
PLAYORDER=
